# xmcd
#
# Track frame offsets:
#	150
#	10121
#	20954
#	32496
#	45141
#	55163
#	67289
#	77471
#	88169
#	99298
#	111816
#	123757
#	136089
#	145880
#	157244
#	165499
#	173060
#	183930
#	195839
#	206454
#	215886
#	227612
#
# Disc length: 3156 seconds
#
# Revision: 0
# Processed by: cddbd v1.5.2PL0 Copyright (c) Steve Scherf et al.
# Submitted via: audiograbber 1.83.01
#
DISCID=1e0c5216
DTITLE=Johnny Cash - Singles Collection 1955 - 1962 - CD1
DYEAR=1900
DGENRE=
TTITLE0=Hey Porter
TTITLE1=Cry Cry Cry
TTITLE2=So Doggone Lonesome
TTITLE3=Folsom Prison Blues
TTITLE4=Get Rhythm
TTITLE5=I Walk The Line
TTITLE6=There You Go
TTITLE7=Train Of Love
TTITLE8=Don't make me go
TTITLE9=Next In Line
TTITLE10=Home Of The Blue
TTITLE11=Give my love to rose
TTITLE12=Ballad Of A Teenage Queen
TTITLE13=Big River
TTITLE14=Guess Things Happen That Way
TTITLE15=Come In Stranger
TTITLE16=The Ways Of A Woman In Love
TTITLE17=You're The Nearest Thing To Heaven
TTITLE18=I just thought you'd like to know
TTITLE19=It's Just About Time
TTITLE20=Thanks a lot
TTITLE21=Luther played the boogie
EXTD=
EXTT0=
EXTT1=
EXTT2=
EXTT3=
EXTT4=
EXTT5=
EXTT6=
EXTT7=
EXTT8=
EXTT9=
EXTT10=
EXTT11=
EXTT12=
EXTT13=
EXTT14=
EXTT15=
EXTT16=
EXTT17=
EXTT18=
EXTT19=
EXTT20=
EXTT21=
PLAYORDER=
